# AST/ASF file generated using VICON BodyLanguage
# -----------------------------------------------
:version 1.10
:name VICON
:units
  mass 1.0
  length 0.45
  angle deg
:documentation
   .ast/.asf automatically generated from VICON data using
   VICON BodyBuilder and BodyLanguage model FoxedUp or BRILLIANT.MOD
:root
   order TX TY TZ RX RY RZ
   axis XYZ
   position 0 0 0  
   orientation 0 -0 0 
:bonedata
  begin
     id 1 
     name lhipjoint
     direction 0.500677 -0.737119 0.453848 
     length 2.34727 
     axis 0 -0 0  XYZ
  end
  begin
     id 2 
     name lfemur
     direction 0.34202 -0.939693 0  
     length 7.53653  
     axis 0 -0 20  XYZ
    dof rx ry rz
    limits (-160.0 20.0)
           (-70.0 70.0)
           (-60.0 70.0)
  end
  begin
     id 3 
     name ltibia
     direction 0.34202 -0.939693 0   
     length 6.85572   
     axis 0 -0 20   XYZ
    dof rx
    limits (-10.0 170.0)
  end
  begin
     id 4 
     name lfoot
     direction 0.155313 -0.426718 0.890949   
     length 2.18324   
     axis -90 -1.13533e-015 20   XYZ
    dof rx rz
    limits (-45.0 90.0)
           (-70.0 20.0)
  end
  begin
     id 5 
     name ltoes
     direction 1.53474e-011 -4.21647e-011 1   
     length 1.06748   
     axis -90 -1.13533e-015 20   XYZ
    dof rx
    limits (-90.0 20.0)
  end
  begin
     id 6 
     name rhipjoint
     direction -0.632471 -0.659587 0.406111   
     length 2.62319  
     axis 0 -0 0  XYZ 
  end
  begin
     id 7 
     name rfemur
     direction -0.34202 -0.939693 0   
     length 7.21735   
     axis 0 -0 -20   XYZ
    dof rx ry rz
    limits (-160.0 20.0)
           (-70.0 70.0)
           (-70.0 60.0)
  end
  begin
     id 8 
     name rtibia
     direction -0.34202 -0.939693 0   
     length 7.02558   
     axis 0 -0 -20   XYZ
    dof rx
    limits (-10.0 170.0)
 end
 begin
     id 9 
     name rfoot
     direction -0.16057 -0.441164 0.882945   
     length 2.10014  
     axis -90 1.13533e-015 -20   XYZ
    dof rx rz
    limits (-45.0 90.0)
           (-20.0 70.0)
  end
  begin
     id 10 
     name rtoes
     direction -1.53553e-011 -4.2192e-011 1   
     length 1.02554   
     axis -90 1.13533e-015 -20   XYZ
    dof rx
    limits (-90.0 20.0)
  end
  begin
     id 11 
     name lowerback
     direction 0.0401429 0.998861 -0.0258085   
     length 1.80848   
     axis 0 -0 0   XYZ
    dof rx ry rz
    limits (-20.0 45.0)
           (-30.0 30.0)
           (-30.0 30.0)
  end
  begin
     id 12 
     name upperback
     direction -0.0130978 0.999914 -0.000352645   
     length 1.8116   
     axis 0 -0 0   XYZ
    dof rx ry rz
    limits (-20.0 45.0)
           (-30.0 30.0)
           (-30.0 30.0)
  end
  begin
     id 13 
     name thorax
     direction -0.0300198 0.999453 0.0138573   
     length 1.81778   
     axis 0 -0 0   XYZ
    dof rx ry rz
    limits (-20.0 45.0)
           (-30.0 30.0)
           (-30.0 30.0)
  end
  begin
     id 14 
     name lowerneck
     direction -0.0401726 0.999191 -0.00173647   
     length 2.10594   
     axis 0 -0 0   XYZ
    dof rx ry rz
    limits (-20.0 45.0)
           (-30.0 30.0)
           (-30.0 30.0)
  end
  begin
     id 15 
     name upperneck
     direction 0.0119835 0.998501 0.0534085   
     length 2.07325   
     axis 0 -0 0   XYZ
    dof rx ry rz
    limits (-20.0 45.0)
           (-30.0 30.0)
           (-30.0 30.0)
  end
  begin
     id 16
     name head
     direction 0.00628309 0.999826 0.0175921  
     length 2.15096  
     axis 0 -0 0   XYZ
    dof rx ry rz
    limits (-20.0 45.0)
           (-30.0 30.0)
           (-30.0 30.0)
  end
  begin
     id 17 
     name lclavicle
     direction 0.895501 0.429681 -0.115981  
     length 4.18092  
     axis 0 -0 0   XYZ
    dof ry rz
    limits (-20.0 10.0)
           (0.0 20.0)
  end
  begin
     id 18 
     name lhumerus
     direction 1 -4.48961e-011 -3.38433e-028   
     length 5.77237   
     axis 180 -30 -90   XYZ
    dof rx ry rz
    limits (-60.0 90.0)
           (-90.0 90.0)
           (-90.0 90.0)
  end
  begin
     id 19
     name lradius
     direction 1 -4.4901e-011 1.11983e-026   
     length 2.91878   
     axis 180 -30 -90   XYZ
    dof rx
    limits (-10.0 170.0)
  end
  begin
     id 20
     name lwrist
     direction 1 -4.48934e-011 1.88176e-026   
     length 1.45939   
     axis -1.23311e-014 90 90   XYZ
    dof ry
    limits (-180.0 0.0)
 end
  begin
     id 21 
     name lhand
     direction 1 -4.4895e-011 3.76352e-026   
     length 1.06566   
     axis -2.40147e-014 90 90   XYZ
    dof rx rz
    limits (-90.0 90.0)
           (-45.0 45.0)
  end
  begin
     id 22 
     name lfingers
     direction 1 -4.49005e-011 7.52705e-026   
     length 0.859162   
     axis -4.80295e-014 90 90   XYZ
    dof rx
    limits (0.0 90.0)
  end
  begin
     id 23
     name lthumb
     direction 0.707107 -6.34885e-011 0.707107   
     length 1.23359   
     axis -90 45 -9.86935e-015   XYZ
    dof rx rz
    limits (-45.0 45.0)
           (-45.0 45.0)
  end
  begin
     id 24 
     name rclavicle
     direction -0.91006 0.40451 -0.0903492   
     length 4.23293  
     axis 0 -0 0   XYZ 
    dof ry rz
    limits (-10.0 20.0)
           (-20.0 0.0)
  end
  begin
     id 25 
     name rhumerus
     direction -1 -4.4897e-011 1.7415e-027  
     length 5.49854   
     axis 180 30 90   XYZ
    dof rx ry rz
    limits (-90.0 60.0)
           (-90.0 90.0)
           (-90.0 90.0)
  end
  begin
     id 26 
     name rradius
     direction -1 -4.48963e-011 1.21259e-026   
     length 3.1186   
     axis 180 30 90   XYZ
    dof rx
    limits (-10.0 170.0)
  end
  begin
     id 27 
     name rwrist
     direction -1 -4.48967e-011 1.88176e-026   
     length 1.5593   
     axis -1.23311e-014 -90 -90   XYZ
    dof ry
    limits (-180.0 0.0)
  end
  begin
     id 28
     name rhand
     direction -1 -4.4895e-011 3.76352e-026   
     length 0.71207   
     axis -2.40147e-014 -90 -90   XYZ
    dof rx rz
    limits (-90.0 90.0)
           (-45.0 45.0)
  end
  begin
     id 29
     name rfingers
     direction -1 -4.49005e-011 7.52705e-026   
     length 0.574089   
     axis -4.80295e-014 -90 -90   XYZ
    dof rx
    limits (0.0 90.0)
  end
  begin
     id 30
     name rthumb
     direction -0.707107 -6.34982e-011 0.707107   
     length 0.824281   
     axis -90 -45 9.86935e-015   XYZ
    dof rx rz
    limits (-45.0 45.0)
           (-45.0 45.0)
  end
:hierarchy
  begin
    root lhipjoint rhipjoint lowerback
    lhipjoint lfemur
    lfemur ltibia
    ltibia lfoot
    lfoot ltoes
    rhipjoint rfemur
    rfemur rtibia
    rtibia rfoot
    rfoot rtoes
    lowerback upperback
    upperback thorax
    thorax lowerneck lclavicle rclavicle
    lowerneck upperneck
    upperneck head
    lclavicle lhumerus
    lhumerus lradius
    lradius lwrist
    lwrist lhand lthumb
    lhand lfingers
    rclavicle rhumerus
    rhumerus rradius
    rradius rwrist
    rwrist rhand rthumb
    rhand rfingers
  end

#!OML:ASF C:\ViconDB\ViconDB\414\Spring2016\042216\male.ASF
:FULLY-SPECIFIED
:DEGREES
539
root 12.631 20.0191 16.1582 -166.109 23.305 -171.676
lowerback -0.859204 -3.06479 5.82972
upperback -0.720552 -4.08257 0.902829
thorax -0.603175 -2.05453 -2.32808
lowerneck 3.72971 -7.72148 -15.7177
upperneck -7.50193 -10.4771 12.6624
head -1.28396 -5.19783 6.47727
rclavicle 1.74931e-014 1.35174e-014
rhumerus -21.3657 2.197 -56.7417
rradius 110.461
rwrist -19.6831
rhand 11.972 -22.7698
rfingers 7.12502
rthumb 36.9943 -48.8358
lclavicle 1.74931e-014 1.35174e-014
lhumerus -23.3885 12.8243 59.2011
lradius 116.257
lwrist 18.2272
lhand -18.5514 14.9371
lfingers 7.12502
lthumb 7.73817 44.7755
rfemur -13.2445 0.92098 27.7272
rtibia 14.4211
rfoot 9.62441 -10.6613
rtoes -4.09007
lfemur -21.2369 -7.62034 -5.59325
ltibia 28.7279
lfoot -0.373556 31.3053
ltoes -15.2764
540
root 12.6058 20.293 16.2901 -165.585 23.1837 -171.2
lowerback -0.015023 -3.09803 6.12495
upperback -0.969395 -4.04453 1.07602
thorax -1.33879 -2.05732 -2.25425
lowerneck 4.43155 -7.63785 -15.9339
upperneck -8.26357 -10.4053 13.2101
head -1.58447 -5.17894 6.74432
rclavicle 8.94531e-016 1.59028e-015
rhumerus -19.273 -0.513047 -53.3498
rradius 112.912
rwrist -22.8322
rhand 11.9321 -22.7881
rfingers 7.12502
rthumb 36.9565 -48.8638
lclavicle 8.94531e-016 1.59028e-015
lhumerus -21.3407 13.6085 56.7375
lradius 119.554
lwrist 20.3354
lhand -20.0447 15.0907
lfingers 7.12502
lthumb 6.29663 44.9772
rfemur -13.5516 0.452236 28.4449
rtibia 15.1357
rfoot 10.1645 -11.3471
rtoes -5.49813
lfemur -22.5223 -2.72268 -6.18798
ltibia 31.3252
lfoot 1.23155 26.2155
ltoes -15.2806
541
root 12.5731 20.5626 16.4449 -165.185 23.0006 -170.782
lowerback 1.15581 -3.20426 6.46884
upperback -1.11686 -4.07706 1.17058
thorax -2.1699 -2.09951 -2.2694
lowerneck 5.00162 -7.55198 -16.2017
upperneck -9.0407 -10.2974 13.8996
head -1.8614 -5.14257 7.06144
rclavicle 1.46107e-014 4.77083e-015
rhumerus -17.0507 -3.56459 -50.2512
rradius 115.075
rwrist -26.268
rhand 11.2373 -22.7878
rfingers 7.12502
rthumb 36.2989 -49.0303
lclavicle 1.46107e-014 4.77083e-015
lhumerus -19.2361 14.9137 54.2303
lradius 122.67
lwrist 22.7744
lhand -21.73 14.5503
lfingers 7.12502
lthumb 4.66953 44.4788
rfemur -14.9986 -2.60548 29.4249
rtibia 17.9709
rfoot 11.5635 -8.18182
rtoes -5.35442
lfemur -24.0683 0.472158 -6.67876
ltibia 34.8038
lfoot 3.78126 21.0805
ltoes -12.3494
542
root 12.5336 20.8261 16.611 -165.091 22.8977 -170.518
lowerback 2.60072 -3.34301 6.6829
upperback -1.06262 -4.14225 1.14033
thorax -2.95067 -2.1553 -2.32831
lowerneck 5.15895 -7.41936 -16.0699
upperneck -9.68095 -10.0466 14.2956
head -2.09195 -5.02498 7.20377
rclavicle 7.5737e-014 -2.54444e-014
rhumerus -14.9483 -7.06729 -47.7085
rradius 116.964
rwrist -29.0448
rhand 10.3174 -22.7447
rfingers 7.12502
rthumb 35.4274 -49.1999
lclavicle 7.5737e-014 -2.54444e-014
lhumerus -17.0139 16.2951 51.3131
lradius 125.595
lwrist 25.2245
lhand -23.7157 13.7952
lfingers 7.12502
lthumb 2.75197 43.7572
rfemur -17.0247 -4.40437 30.0445
rtibia 22.7111
rfoot 11.7991 -5.49404
rtoes -5.41492
lfemur -25.7136 2.26445 -7.02142
ltibia 39.2451
lfoot 5.14686 15.5402
ltoes -7.58448
543
root 12.4892 21.0728 16.7882 -165.404 22.9333 -170.538
lowerback 4.53611 -3.66889 6.4023
upperback -0.884343 -4.44896 1.03825
thorax -3.86942 -2.32344 -2.13747
lowerneck 4.92404 -7.19856 -15.6198
upperneck -10.1435 -9.60179 14.5415
head -2.26072 -4.80549 7.22601
rclavicle -9.50191e-014 2.46493e-014
rhumerus -12.5599 -10.5807 -45.7261
rradius 118.309
rwrist -31.489
rhand 9.57225 -22.4122
rfingers 7.12502
rthumb 34.7205 -49.0331
lclavicle -9.50191e-014 2.46493e-014
lhumerus -15.4398 18.5865 47.7767
lradius 127.983
lwrist 26.4875
lhand -24.8326 12.0617
lfingers 7.12502
lthumb 1.67322 42.0349
rfemur -19.2774 -5.19303 30.1503
rtibia 28.8092
rfoot 11.0929 -3.34984
rtoes -5.67839
lfemur -27.3394 3.75811 -7.6673
ltibia 44.6083
lfoot 4.74468 9.4856
ltoes -5.73357
544
root 12.4385 21.3139 16.976 -166.17 23.1445 -171.014
lowerback 6.78926 -3.84883 5.89049
upperback -0.604101 -4.58112 0.732884
thorax -4.84189 -2.39568 -2.01832
lowerneck 4.86642 -7.01057 -15.3484
upperneck -10.7871 -9.21396 14.9041
head -2.48682 -4.61614 7.32703
rclavicle 1.51076e-014 -3.02153e-014
rhumerus -10.8088 -14.4158 -43.6756
rradius 119.631
rwrist -34.1874
rhand 8.11415 -22.7674
rfingers 7.12502
rthumb 33.3356 -49.6962
lclavicle 1.51076e-014 -3.02153e-014
lhumerus -13.9875 20.9264 44.1966
lradius 130.072
lwrist 27.4049
lhand -25.2684 10.2224
lfingers 7.12502
lthumb 1.25231 40.1985
rfemur -21.5836 -5.73251 29.6178
rtibia 35.8449
rfoot 9.21511 -1.73031
rtoes -4.52979
lfemur -28.898 5.07553 -8.71841
ltibia 50.754
lfoot 3.08339 4.67692
ltoes -4.93811
545
root 12.3758 21.5511 17.1592 -167.082 23.3652 -171.72
lowerback 9.4048 -4.11235 5.38368
upperback -0.472704 -4.82411 0.337154
thorax -6.19192 -2.52318 -1.94243
lowerneck 5.14476 -6.77114 -15.4203
upperneck -11.6115 -8.78665 15.5616
head -2.79529 -4.41903 7.60202
rclavicle 1.49089e-014 7.95139e-016
rhumerus -9.38695 -17.9249 -41.5875
rradius 120.515
rwrist -36.0413
rhand 6.50654 -22.9202
rfingers 7.12502
rthumb 31.8059 -50.1649
lclavicle 1.49089e-014 7.95139e-016
lhumerus -13.4454 23.5014 40.152
lradius 131.778
lwrist 27.613
lhand -25.6312 8.61795
lfingers 7.12502
lthumb 0.901963 38.5958
rfemur -24.0661 -6.89196 28.8338
rtibia 43.3191
rfoot 7.68121 -0.00552671
rtoes -3.0045
lfemur -30.5786 6.18704 -9.95269
ltibia 57.4043
lfoot 1.13721 1.47789
ltoes -5.54014
546
root 12.3093 21.7588 17.3412 -167.839 23.6903 -172.513
lowerback 11.3826 -4.2267 4.79713
upperback -0.00568137 -4.94736 -0.0826054
thorax -6.80778 -2.56019 -1.92142
lowerneck 5.01498 -6.72269 -15.4047
upperneck -12.6322 -8.51162 16.2024
head -3.07406 -4.27629 7.84515
rclavicle -3.55825e-014 -1.35174e-014
rhumerus -7.90325 -21.9226 -39.3774
rradius 121.016
rwrist -37.893
rhand 4.812 -23.2303
rfingers 7.12502
rthumb 30.1906 -50.7829
lclavicle -3.55825e-014 -1.35174e-014
lhumerus -12.2566 26.3546 36.6049
lradius 133.032
lwrist 27.6941
lhand -25.7993 8.33085
lfingers 7.12502
lthumb 0.739608 38.3093
rfemur -27.1026 -7.80575 28.0045
rtibia 51.2671
rfoot 6.15292 0.936322
rtoes -2.21554
lfemur -32.6565 7.08594 -11.2444
ltibia 64.6155
lfoot -0.69701 -0.0632608
ltoes -6.24876
547
root 12.2449 21.9806 17.5057 -168.412 24.0246 -173.003
lowerback 13.0751 -4.27943 4.60863
upperback 0.486593 -4.95105 -0.423938
thorax -7.24822 -2.54068 -2.08425
lowerneck 4.83998 -6.67997 -15.1262
upperneck -13.6177 -8.25509 16.36
head -3.37447 -4.12936 7.88712
rclavicle -1.00585e-013 -4.77083e-015
rhumerus -6.67357 -25.6067 -37.1618
rradius 121.288
rwrist -39.3579
rhand 2.58155 -23.7062
rfingers 7.12502
rthumb 28.0606 -51.6276
lclavicle -1.00585e-013 -4.77083e-015
lhumerus -11.3852 28.9291 33.4739
lradius 133.807
lwrist 27.6804
lhand -26.0559 8.96768
lfingers 7.12502
lthumb 0.491773 38.9469
rfemur -30.0507 -8.13352 27.3647
rtibia 59.2053
rfoot 4.37385 0.176752
rtoes -0.371431
lfemur -34.7471 7.86475 -12.1764
ltibia 72.0665
lfoot -2.26694 -0.737984
ltoes -6.47962
548
root 12.1862 22.1059 17.6695 -168.803 24.4252 -173.469
lowerback 14.3594 -4.25435 4.18963
upperback 1.09353 -4.89055 -0.583524
thorax -7.28816 -2.46726 -1.97629
lowerneck 4.36215 -6.71069 -15.1315
upperneck -14.6553 -8.06672 16.5117
head -3.61541 -3.98434 7.96189
rclavicle 5.80451e-014 -9.54166e-015
rhumerus -5.20777 -28.9989 -35.1315
rradius 121.529
rwrist -41.4023
rhand -0.108237 -24.8782
rfingers 7.12502
rthumb 25.4867 -53.1938
lclavicle 5.80451e-014 -9.54166e-015
lhumerus -10.5896 31.4263 30.937
lradius 134.407
lwrist 28.5598
lhand -26.0867 10.0551
lfingers 7.12502
lthumb 0.461992 40.0344
rfemur -33.3195 -7.93974 26.8078
rtibia 67.2676
rfoot 2.69056 -1.83408
rtoes -3.04331
lfemur -37.3425 8.78427 -13.0441
ltibia 80.0022
lfoot -3.75619 -0.91379
ltoes -6.52115
